# xmcd
#
# Track frame offsets: 
#        150
#        20773
#        33880
#        56830
#        71759
#        83396
#        109330
#        131443
#        157268
#        173507
#        190606
#        198403
#        220550
#        235246
#        251480
#        267525
#        289197
#
# Disc length: 4112 seconds
#
# Revision: 0
# Processed by: cddbd v1.5.1PL0 Copyright (c) Steve Scherf et al.
# Submitted via: ExactAudioCopy v0.95a5
#
DISCID=f1100e11
DTITLE=Blackmore's Night - Beyond the sunset - the romantic collection
DYEAR=2004
DGENRE=Celtic
TTITLE0=Once in a million years (previously unreleased)
TTITLE1=Be mine tonight
TTITLE2=Wish you were here
TTITLE3=Waiting just for you
TTITLE4=Durch den Wald zum Bach Haus
TTITLE5=Ghost of a rose (re recorded new version)
TTITLE6=Spirit of the sea
TTITLE7=I still remember
TTITLE8=Castles and dreams
TTITLE9=Beyond the sunset
TTITLE10=Again Someday
TTITLE11=Diamonds and rust
TTITLE12=Mow and then (re recorded new version)
TTITLE13=All because of you
TTITLE14=Emannuel (Bonus Christmas Songs)
TTITLE15=We Three Kings (Bonus Christmas Songs)
TTITLE16=Christmas Eve (Bonus Christmas Songs)
EXTD=
EXTT0=
EXTT1=
EXTT2=
EXTT3=
EXTT4=
EXTT5=
EXTT6=
EXTT7=
EXTT8=
EXTT9=
EXTT10=
EXTT11=
EXTT12=
EXTT13=
EXTT14=
EXTT15=
EXTT16=
PLAYORDER=
